<svg width="27" height="35" viewBox="0 0 27 35" fill="none" xmlns="http://www.w3.org/2000/svg">
<path fill-rule="evenodd" clip-rule="evenodd" d="M22.229 1.02494e-05C22.1406 0.000184875 22.0533 0.0197887 21.9734 0.0574334C21.8934 0.095078 21.8227 0.149843 21.7663 0.21785C21.7663 0.21785 20.7094 1.49205 19.648 3.0708C19.1173 3.86017 18.5848 4.72714 18.175 5.56698C17.7653 6.40682 17.458 7.21031 17.458 7.97485C17.458 10.6383 19.5958 12.8212 22.229 12.8212C24.8622 12.8212 27 10.6383 27 7.97485C27 7.21031 26.6974 6.40682 26.2876 5.56698C25.8779 4.72714 25.3454 3.86017 24.8147 3.0708C23.7532 1.49205 22.6964 0.217843 22.6964 0.21785C22.6395 0.149229 22.568 0.0940978 22.4872 0.0564285C22.4063 0.0187593 22.3182 -0.000509702 22.229 1.02494e-05ZM4.22821 5.43745C4.13894 5.43707 4.0507 5.45652 3.96986 5.49439C3.88902 5.53227 3.81761 5.58762 3.76076 5.65645C3.76076 5.65645 2.83927 6.77615 1.91335 8.16088C1.45039 8.85324 0.986385 9.61145 0.627579 10.3509C0.268774 11.0904 0 11.7966 0 12.4868C0 14.8551 1.89227 16.8033 4.22821 16.8033C6.56414 16.8033 8.45524 14.8551 8.45524 12.4868C8.45524 11.7966 8.18646 11.0904 7.82766 10.3509C7.46885 9.61145 7.00485 8.85324 6.54189 8.16088C5.61597 6.77615 4.69094 5.65645 4.69094 5.65645C4.63461 5.58823 4.56395 5.53325 4.48397 5.4954C4.404 5.45755 4.31668 5.43777 4.22821 5.43745ZM14.187 11.0091C14.0989 11.0089 14.0118 11.0279 13.9319 11.0649C13.852 11.102 13.7811 11.156 13.7243 11.2234C13.7243 11.2234 11.6314 13.7032 9.5326 16.768C8.48322 18.3004 7.43045 19.9792 6.63137 21.5873C5.83229 23.1954 5.26907 24.7213 5.26907 26.051C5.26907 30.9678 9.26908 34.9642 14.187 34.9642C19.105 34.9642 23.105 30.9678 23.105 26.051C23.105 24.7213 22.5383 23.1954 21.7392 21.5873C20.9401 19.9792 19.892 18.3004 18.8427 16.768C16.7439 13.7032 14.6462 11.2234 14.6462 11.2234C14.5898 11.1565 14.5195 11.1027 14.4402 11.0657C14.3609 11.0287 14.2745 11.0094 14.187 11.0091Z" fill="#FFD700"/>
</svg>
