<svg width="16" height="39" viewBox="0 0 16 39" fill="none" xmlns="http://www.w3.org/2000/svg">
<path d="M9.05008 26.2406C10.1658 26.2406 11.9378 25.9049 13.6442 24.226C16.5319 21.4055 15.613 18.585 15.5474 18.4507C15.4818 18.2492 15.3505 18.1149 15.1536 18.0478C15.0224 17.9806 12.1347 17.1076 9.31259 19.861C8.98444 20.1296 8.78755 20.4653 8.52504 20.734V17.9135C8.72193 17.9135 8.85319 17.9135 9.1157 17.9135C10.2314 17.9135 12.0034 17.5777 13.7098 15.8988C16.5975 13.0783 15.6787 10.2579 15.613 10.1235C15.5474 9.92208 15.4162 9.78777 15.2193 9.72062C15.088 9.65346 12.2003 8.78046 9.37822 11.5338C9.05008 11.8024 8.85319 12.1382 8.59067 12.4068V10.5936C9.37822 10.0564 11.019 8.57899 11.019 5.42273C11.019 1.46061 8.32815 0.11752 8.19689 0.0503659C8 -0.0167886 7.80311 -0.0167886 7.60622 0.0503659C7.47496 0.11752 4.78415 1.46061 4.78415 5.42273C4.78415 8.57899 6.49052 10.0564 7.21244 10.5936V12.4068C7.01556 12.1382 6.75304 11.8024 6.42489 11.5338C3.60281 8.78046 0.715106 9.65346 0.583847 9.72062C0.386958 9.78777 0.255698 9.92208 0.190069 10.1235C0.124439 10.2579 -0.794377 13.0783 2.09333 15.8988C3.7997 17.5777 5.5717 17.9135 6.68741 17.9135C6.88429 17.9135 7.08119 17.9135 7.27807 17.9135V20.734C7.08119 20.4653 6.81867 20.1296 6.49052 19.861C3.66844 17.1076 0.780736 17.9806 0.649477 18.0478C0.452588 18.1149 0.321328 18.2492 0.255699 18.4507C0.190069 18.585 -0.728747 21.4055 2.15896 24.226C3.86533 25.9049 5.63733 26.2406 6.75304 26.2406C6.94992 26.2406 7.14681 26.2406 7.3437 26.2406V29.0611C7.14681 28.7925 6.8843 28.4567 6.55615 28.1881C3.73407 25.4348 0.846366 26.3078 0.715107 26.3749C0.518218 26.4421 0.386958 26.5764 0.321329 26.7779C0.255699 26.9122 -0.663117 29.7327 2.22459 32.5532C3.93096 34.232 5.70296 34.5678 6.81867 34.5678C7.01555 34.5678 7.21244 34.5678 7.40933 34.5678V38.3285C7.40933 38.7314 7.67185 39 8.06563 39C8.45941 39 8.72193 38.7314 8.72193 38.3285V34.5006C8.91882 34.5006 9.05007 34.5006 9.31259 34.5006C10.4283 34.5006 12.2003 34.1649 13.9067 32.486C16.7944 29.6655 15.8756 26.845 15.8099 26.7107C15.7443 26.5093 15.613 26.3749 15.4162 26.3078C15.2849 26.2406 12.3972 25.3676 9.57511 28.121C9.24696 28.3896 9.05007 28.7254 8.78756 28.994V26.2406C8.6563 26.2406 8.78756 26.2406 9.05008 26.2406Z" fill="#F4A300"/>
</svg>
