<svg width="33" height="37" viewBox="0 0 33 37" fill="none" xmlns="http://www.w3.org/2000/svg">
<path d="M29.4418 5.97472V6.03108V6.08745V6.70751H19.9159V3.6073H29.4418V5.97472Z" fill="#ED737A"/>
<path d="M32.0912 12.8517V13.6972H17.2103V12.8517L19.6904 7.89136H19.8595H29.3855H29.5546L32.0912 12.8517Z" fill="#ED737A"/>
<path d="M32.0912 0.394587V5.12942C32.0912 5.35489 31.9221 5.46762 31.753 5.46762H30.6256V3.60753C30.6256 2.98747 30.1183 2.42384 29.4419 2.42384H19.916C19.2959 2.42384 18.7323 2.93112 18.7323 3.60753V5.46762H17.605C17.3795 5.46762 17.2104 5.29852 17.2104 5.12942V0.394587C17.2104 0.169119 17.3795 0 17.605 0H31.7532C31.9223 0 32.0912 0.169101 32.0912 0.394587Z" fill="#ED737A"/>
<path d="M8.41701 31.6782C8.41701 32.4673 8.19154 33.3128 7.79695 33.9892C7.12055 35.1165 6.04956 35.8493 4.75313 36.0184C4.41493 36.0748 4.02038 36.0748 3.68214 36.0184C2.44206 35.8493 1.31472 35.1165 0.638319 33.9892C-0.0944348 32.7491 -0.207205 31.2272 0.356484 29.9308L1.59656 26.9433C2.04749 25.9287 3.0621 25.2523 4.18944 25.2523C4.8095 25.2523 5.37313 25.4214 5.82407 25.7596C5.88044 25.7596 5.88044 25.816 5.9368 25.816C6.33139 26.0978 6.61321 26.4924 6.78233 26.9433L8.0224 29.9307C8.30424 30.4944 8.41701 31.1145 8.41701 31.6782Z" fill="#ED737A"/>
<path d="M32.0912 14.8809V35.1167H17.9996L18.3378 34.6095C19.2397 33.0312 19.3524 31.1147 18.676 29.48L17.4359 26.4925C17.3796 26.3234 17.3232 26.2107 17.2104 26.0416V14.8807L32.0912 14.8809Z" fill="#ED737A"/>
<path d="M17.3232 34.0457C17.0413 34.4966 16.7031 34.9476 16.3086 35.2294C15.7449 35.6803 15.0685 35.9622 14.3357 36.0749C13.9975 36.1313 13.603 36.1313 13.2647 36.0749C12.0246 35.9058 10.8973 35.1731 10.2209 34.0457C9.82631 33.313 9.60084 32.5238 9.60084 31.7347C9.60084 31.1146 9.71358 30.551 9.93904 29.9873L11.1791 26.9998C11.3482 26.5489 11.6864 26.1543 12.0246 25.8725C12.081 25.8161 12.1374 25.8161 12.1937 25.7598C12.6447 25.4779 13.152 25.3088 13.7157 25.3088C14.6739 25.3088 15.5758 25.8161 16.0831 26.6053V26.6617C16.1395 26.7744 16.1958 26.8871 16.2522 27.0563L17.4923 30.0437C18.1687 31.2274 18.056 32.8055 17.3232 34.0457Z" fill="#ED737A"/>
<path d="M12.588 23.5612C12.2498 24.1249 11.8552 24.5758 11.3479 24.914C10.8406 25.3086 10.2206 25.5341 9.54417 25.5904C9.20596 25.6468 8.81141 25.6468 8.47317 25.5904C7.79677 25.5341 7.17671 25.2522 6.66943 24.914C6.16214 24.5758 5.76756 24.1249 5.42935 23.5612C4.6966 22.3211 4.58383 20.7992 5.14752 19.5028L6.38759 16.5154C6.83853 15.5007 7.85314 14.8243 8.98048 14.8243C10.1078 14.8243 11.1224 15.5007 11.5734 16.5154L12.8134 19.5028C13.4335 20.7992 13.3207 22.3211 12.588 23.5612Z" fill="#ED737A"/>
</svg>
