<svg width="41" height="36" viewBox="0 0 41 36" fill="none" xmlns="http://www.w3.org/2000/svg">
<path d="M15.0316 10.5625L14.7897 7.75719C14.7606 7.41881 15.0116 7.11863 15.3536 7.0877C15.7138 7.06223 15.994 7.30965 16.0231 7.65165L16.2942 10.7899C16.769 10.8572 17.2293 10.9973 17.6732 11.1883C18.5391 10.3405 19.3524 9.87299 19.4251 9.83294C19.7235 9.67102 20.0982 9.78018 20.2638 10.0785C20.4275 10.3787 20.3184 10.7535 20.0182 10.919C20.0055 10.9263 19.4469 11.2501 18.7993 11.8323C19.3232 12.2125 19.8144 12.6528 20.2201 13.1931C20.4093 12.6764 20.6167 12.2107 20.8496 11.8178C21.6974 10.3806 22.8854 9.36904 24.359 8.81235C23.9679 8.29567 23.4803 7.88634 22.9309 7.628C21.8466 7.11677 20.8751 6.34542 20.4294 5.23386C19.7817 3.6202 18.4355 2.46132 16.8709 2.46314C16.7345 2.46314 16.598 2.47405 16.467 2.49042C15.4737 2.62869 14.4804 2.71237 13.4762 2.74876C13.3415 2.7524 13.2087 2.76695 13.0723 2.78878C11.5314 3.05803 10.4016 4.42793 10.0396 6.13078C9.93043 6.64201 9.69757 7.09861 9.40466 7.51526C10.8164 7.68081 12.2081 8.39758 13.2943 9.59833C13.7054 10.0568 14.2948 10.3733 15.0316 10.5625Z" fill="#B6D7AD"/>
<path d="M15.9249 11.9686C14.5914 11.8522 13.2724 11.421 12.3773 10.4295C11.0729 8.98679 9.21181 8.29551 7.57472 8.90315C7.431 8.9559 7.29455 9.01776 7.16174 9.08871C6.17388 9.61629 5.16599 10.0911 4.12723 10.515C3.98896 10.5714 3.85434 10.6369 3.72153 10.7151C2.20972 11.5902 1.55663 13.4622 1.83495 15.3869C2.02779 16.7113 1.5184 18.0012 0.757947 19.1018C-0.229915 20.5318 -0.302662 22.6858 0.839813 24.5635C1.36921 25.4331 2.07689 26.1135 2.85736 26.5665C4.05261 27.2596 5.08598 28.242 5.5335 29.5482C5.65175 29.8902 5.80639 30.2268 5.99923 30.5488C6.71603 31.7459 7.81483 32.5427 8.97371 32.8465C10.2672 33.1849 11.5461 33.6889 12.4685 34.6585C13.6474 35.8993 15.4412 36.0339 17.0349 35.479L14.7954 30.716C13.0089 27.5996 8.79534 27.6723 8.74644 27.6632C8.39532 27.6268 8.12245 27.4013 8.11332 27.061C8.10423 26.7208 8.37166 26.4352 8.71369 26.4261C8.8556 26.4279 11.1915 26.3897 13.3346 27.6086L11.4626 23.6299C9.66518 20.4989 5.44631 20.5772 5.41744 20.5808C5.06632 20.5899 4.79159 20.3207 4.78069 19.9804C4.76977 19.6402 5.04084 19.3546 5.38106 19.3437C5.51933 19.3419 7.85889 19.3037 10.002 20.5244L7.51141 15.2211C7.36587 14.9119 7.50049 14.5426 7.80795 14.3988C8.11177 14.2515 8.4847 14.3843 8.63025 14.6954L11.1227 19.9968C11.5484 17.5681 13.0674 15.7907 13.1584 15.6851C13.3822 15.4286 13.7715 15.4032 14.0298 15.6269C14.2882 15.8507 14.3136 16.2418 14.0917 16.5002C14.0644 16.5329 11.3246 19.7421 12.5835 23.1042L14.4537 27.0812C14.8794 24.6525 16.3985 22.8751 16.4895 22.7677C16.7132 22.5112 17.1044 22.4857 17.3609 22.7095C17.6192 22.9333 17.6447 23.3244 17.4227 23.5827C17.3955 23.6155 14.6557 26.8228 15.9146 30.1868L18.1523 34.948C18.5671 34.6969 18.96 34.4113 19.2875 34.0675C19.182 33.7709 19.0946 33.4634 19.0619 33.1378C18.5234 27.9002 18.4979 19.7588 19.7496 14.7521C18.9182 13.1185 17.4318 12.1015 15.9255 11.9687L15.9249 11.9686Z" fill="#B6D7AD"/>
<path d="M31.3159 10.3568C31.3159 10.3568 24.8138 7.53514 21.9137 12.449C21.7318 12.7582 21.5681 13.133 21.4153 13.5351L25.6487 15.116C25.9689 15.2361 26.1326 15.5926 26.0125 15.9128C25.9216 16.162 25.6832 16.3149 25.434 16.3149C25.363 16.3149 25.2885 16.3021 25.2193 16.2767L21.0368 14.7157C20.7057 15.9255 20.4565 17.3609 20.2836 18.94L23.0162 19.9624C23.3364 20.0825 23.5001 20.4391 23.3782 20.7593C23.2872 21.0085 23.0489 21.1613 22.7997 21.1613C22.7287 21.1613 22.6541 21.1486 22.5832 21.1231L20.1636 20.2189C19.9926 22.2802 19.9343 24.4906 19.958 26.6283L22.1866 27.4616C22.5068 27.5816 22.6706 27.9382 22.5486 28.2584C22.4577 28.5076 22.2194 28.6604 21.9701 28.6604C21.8992 28.6604 21.8246 28.6477 21.7536 28.6222L19.9835 27.9618C20.0344 29.7902 20.1417 31.5258 20.2946 33.0141C20.522 35.2299 23.1672 36.2178 24.7918 34.6933C25.8833 33.6709 27.1022 32.4301 28.3393 31.0821L26.1034 30.247C25.7833 30.1269 25.6195 29.7704 25.7414 29.4502C25.8597 29.13 26.2126 28.9717 26.5382 29.0863L29.2326 30.0924C30.6534 28.4933 32.0579 26.785 33.2804 25.1184L29.5782 23.7339C29.2581 23.6138 29.0943 23.2573 29.2162 22.9371C29.3363 22.6169 29.6874 22.4586 30.013 22.5732L34.0263 24.0742C34.9305 22.7697 35.6837 21.5217 36.2277 20.3901L32.44 18.9747C32.1198 18.8547 31.956 18.4981 32.0779 18.1779C32.198 17.8577 32.5527 17.6995 32.8747 17.8141L36.7152 19.2494C36.8626 18.8456 36.9863 18.4562 37.05 18.1033C38.076 12.4908 31.3159 10.3568 31.3159 10.3568Z" fill="#B6D7AD"/>
<path d="M40.5197 4.65327C39.137 4.10021 37.7108 3.92557 36.3572 4.08564C34.8418 4.30031 33.4337 4.89703 32.3112 5.96309C31.4343 6.81994 30.9304 7.8697 30.6302 8.81569C31.3179 9.01581 31.769 9.2032 31.8072 9.21957C32.8915 9.55795 34.3742 10.2929 35.6604 11.4154C36.4372 10.795 36.8029 9.76713 38.0891 8.07159C38.9914 6.86358 39.8938 5.94669 40.6361 5.27721C40.8253 5.08982 40.7817 4.75513 40.5197 4.65327Z" fill="#B6D7AD"/>
<path d="M27.3428 8.31408C28.0905 8.31772 28.7945 8.40868 29.4203 8.52875C29.7678 7.3899 30.3736 6.12549 31.447 5.0776C31.8545 4.68827 32.3166 4.36447 32.7987 4.06971C31.9291 2.25773 30.2536 0.773217 28.1032 0.0254856C27.8412 -0.076393 27.5793 0.141918 27.6084 0.418446C27.7248 1.39359 27.7976 2.68888 27.6957 4.20251C27.5611 6.32196 27.1554 7.33353 27.3428 8.31408Z" fill="#B6D7AD"/>
</svg>
