<svg width="50" height="58" viewBox="0 0 50 58" fill="none" xmlns="http://www.w3.org/2000/svg">
<path d="M25.3532 9.76727C25.1383 9.62966 24.8614 9.62966 24.6465 9.76727C24.1724 10.066 13.006 17.2673 13.006 28.164C13.006 34.4173 18.3842 39.5024 25.002 39.5024C26.7189 39.5024 28.3542 39.1617 29.8315 38.5357L28.8017 30.7723C28.7378 30.3007 28.878 29.8291 29.187 29.4532C29.4959 29.0773 29.9452 28.8323 30.4494 28.7735C31.497 28.6544 32.4309 29.3576 32.5641 30.3309L32.9369 33.142C33.7643 32.6234 34.8492 32.5697 35.7334 32.9809C35.7832 32.9574 35.8346 32.9389 35.8844 32.9205C36.5981 31.4772 36.9959 29.8661 36.9959 28.1645C36.9959 17.2695 25.8277 10.0663 25.3554 9.76774L25.3532 9.76727ZM22.9295 15.8964C20.9338 17.8414 18.3345 20.9561 17.2795 24.7339C17.2103 25.0024 16.9511 25.182 16.6741 25.182C16.6173 25.182 16.5676 25.1752 16.5107 25.1635C16.1769 25.0796 15.9745 24.7523 16.0633 24.4351C17.1872 20.4007 19.9269 17.113 22.0219 15.0671C22.2687 14.8288 22.6665 14.822 22.9186 15.0553C23.1654 15.2819 23.1707 15.6578 22.931 15.8961L22.9295 15.8964Z" fill="#71CCF3"/>
<path d="M17.5941 14.3204C15.403 16.8093 13.251 20.0483 12.2782 23.8913C11.9 23.9567 11.5076 23.987 11.1099 23.987C7.27818 23.987 4.16577 21.045 4.16577 17.4235C4.16755 10.7174 10.4744 6.37901 10.7462 6.19943C10.9664 6.05006 11.2576 6.05006 11.4778 6.19943C11.705 6.34879 16.1491 9.40317 17.5946 14.3203L17.5941 14.3204Z" fill="#71CCF3"/>
<path d="M40.4473 45.4685H34.8046C33.2154 45.4685 31.8696 44.3457 31.6725 42.8555L30.0549 30.6261C30.0123 30.2988 30.2573 30.0001 30.6036 29.9598C30.9498 29.9212 31.2658 30.1511 31.3085 30.4784L32.926 42.7078C33.045 43.6023 33.8529 44.2752 34.8046 44.2752H40.4473C41.4008 44.2752 42.2086 43.6006 42.3258 42.7078L43.9434 30.4784C43.986 30.1511 44.2985 29.9212 44.6483 29.9598C44.9945 30.0001 45.2396 30.2988 45.1969 30.6261L43.5794 42.8555C43.3823 44.3458 42.0364 45.4685 40.4473 45.4685Z" fill="#71CCF3"/>
<path d="M40.7832 35.572C40.3766 35.572 39.9931 35.4227 39.7054 35.1508C39.6024 35.0535 39.4373 35.0535 39.3361 35.1508C38.7608 35.6945 37.7558 35.6945 37.1806 35.1508C37.0474 35.0249 36.9444 35.0249 36.8112 35.1508C36.2164 35.713 35.2505 35.713 34.6557 35.1508C34.5225 35.0249 34.4196 35.0249 34.2864 35.1508C34.0396 35.3841 33.6401 35.3841 33.3933 35.1508C33.1465 34.9175 33.1465 34.5399 33.3933 34.3067C33.9686 33.7629 34.9736 33.7629 35.5488 34.3067C35.6518 34.404 35.8169 34.404 35.9182 34.3067C36.4934 33.7629 37.4984 33.7629 38.0737 34.3067C38.2069 34.4325 38.3099 34.4325 38.443 34.3067C39.0378 33.7445 40.0037 33.7445 40.5986 34.3067C40.7317 34.4325 40.8347 34.4325 40.9679 34.3067C41.2147 34.0734 41.6142 34.0734 41.861 34.3067C42.1078 34.5399 42.1078 34.9176 41.861 35.1508C41.5733 35.4227 41.1898 35.572 40.7832 35.572Z" fill="#71CCF3"/>
</svg>
