<svg viewBox="0 0 150 150" width="100%" height="100%" fill="none" xmlns="http://www.w3.org/2000/svg">
  <path d="M34.372 13.417L55.686 48.419L60.191 57.621L62.847 67.546L63.48 77.787L61.558 87.91L58.927 92.343L55.152 95.895L50.572 98.182L45.565 99.411L35.476 101.192L26.186 105.471L17.808 111.402L11.327 119.475L7.52301 128.528L6.28201 133.884L6 139.324" stroke="#F4A300" stroke-width="0.25" stroke-linecap="round" stroke-linejoin="round"/>
  <path d="M26.4599 139.324L26.4309 134.612L27.3639 130.208L29.3429 126.046L32.7249 123.008L37.1709 121.674L41.7189 122.107L49.9069 125.982L57.7139 130.757L66.0659 134.384L74.9579 136.266L84.0869 136.498L93.0879 135.16L101.658 132.104L109.584 127.549L116.597 121.707L122.393 114.703L127.087 106.886L130.829 98.584L133.375 89.855L134.726 80.826L135.062 71.685L134.463 62.594L132.752 53.652L129.781 45.015L125.516 36.94L119.884 29.777L112.732 24.122L104.32 20.654L95.2649 19.659L86.2539 20.939L77.6319 23.892L69.0089 26.813L64.5219 26.439L61.2239 23.369L56.4849 15.338L52.9689 7" stroke="#F4A300" stroke-width="0.25" stroke-linecap="round" stroke-linejoin="round"/>
  <path d="M34.3718 13.417L52.9688 7" stroke="#F4A300" stroke-width="0.25" stroke-linecap="round" stroke-linejoin="round"/>
  <path d="M6 139H26.46" stroke="#F4A300" stroke-width="0.25" stroke-linecap="round" stroke-linejoin="round"/>
</svg>
