<svg viewBox="0 0 150 150" width="100%" height="100%" fill="none" xmlns="http://www.w3.org/2000/svg">
  <path fill-rule="evenodd" clip-rule="evenodd" d="M73.504 30.429L68.641 31.934L64.5 36.5L63.417 40.183L63 42L63.5 48L65 55L67.5 65L68.5 69.5L69 74.5L69.5 81.5L69.302 84.6171L69 87.5L68 89.5L66 93L65.648 93.628L62.5 97L58.332 100.458L53.764 102.597L48.875 103.689L43.92 104.534L39.747 107.235L39 109.644L39.872 111.973L43.785 115.088L49.5 117.5L61.307 124.87L70.591 128.668L77.5 130L80.533 130.012L90.485 128.64L97.5 126L104 122L109.5 118L114.5 113L119 108L121.567 104.484L126.127 95.543L128.877 85.874L129.5 76L129 66L128.5 60L127.5 57.5L125.5 50L124 46.5L121 40.5L111.5 31L107.5 28.5L104.5 27L99.5 26H93.068L73.504 30.429Z" stroke="#F4A300" stroke-width="0.25" stroke-linecap="round" stroke-linejoin="round"/>
</svg>
